<svg id="Capa_1" data-name="Capa 1" xmlns="http://www.w3.org/2000/svg" viewBox="0 0 273.1 75.16"><defs><style>.cls-1{fill:#e41d1c;}.cls-2{fill:#1d1d1b;}</style></defs><title>LogoCurva</title><path class="cls-1" d="M105.82,14.12h20.11c1.52,0,2.51,1,3,3a4,4,0,0,1,.11,1.1v.6q-2.43,13.49-2.59,13.72h-4.75c-.08,0-.11-.07-.11-.2Q124,19.63,124,18.83c0-.53-.15-.8-.45-.8h-3.14q-2.59,14.12-2.77,14.52h-4.75c-.07,0-.11-.07-.11-.2Q115.1,20,115.44,18h-3.93q-2.6,14.12-2.76,14.52H104c-.07,0-.11-.07-.11-.2q2.33-12.24,2.82-15.32v-.1a5,5,0,0,0-.89-2.71Z"/><path class="cls-1" d="M129.75,14.12h15.52q2.34,0,3,3.21c0,.45.06.82.06,1.1q0,2-2.43,14.12H141l-.11-.1q1-4.89,1.16-6H134a48.43,48.43,0,0,0-1,5.41c-.1.46-.18.7-.22.7h-4.92q2.76-15,2.76-15.32v-1a2.84,2.84,0,0,0-.83-1.91Zm4.86,8.51h8.12c.41-2.18.61-3.38.61-3.6v-.3c0-.47-.13-.7-.39-.7h-7.06c-.4,0-.7.9-.89,2.7A16.55,16.55,0,0,0,134.61,22.63Z"/><path class="cls-1" d="M149.09,14.12h15.52c1.55,0,2.57,1.07,3,3.21,0,.45.06.82.06,1.1q0,2-2.43,14.12h-4.92l-.11-.1q1.22-5.81,2.54-13.62v-.1c-.08-.47-.24-.7-.49-.7h-7.07c-.4,0-.69.9-.89,2.7l-2.21,11.82h-5q2.76-15,2.76-15.32v-1a2.87,2.87,0,0,0-.82-1.91Z"/><path class="cls-1" d="M169.41,14.12h17.73c1.07,0,1.6.84,1.6,2.51v.1q0,1-2.21,12.61-1.34,3.21-6.35,3.21h-13.7v-.1a7,7,0,0,0,2.05-4.61q.83-4.26,1.93-11a3.62,3.62,0,0,0-1.05-2.51Zm4.09,14.12h7.84c.41,0,.77-1.33,1.11-4q.11-.33,1.05-5.91h-7.79c-.41,0-.7.9-.89,2.7C174.79,21,174.35,23.44,173.5,28.24Z"/><path class="cls-1" d="M189.21,14.12h15.52q2.34,0,3,3.21c0,.45.06.82.06,1.1q0,2-2.43,14.12h-4.92l-.11-.1q1-4.89,1.16-6h-8.06a48.43,48.43,0,0,0-1.05,5.41c-.11.46-.18.7-.22.7h-4.92q2.76-15,2.76-15.32v-1a2.84,2.84,0,0,0-.83-1.91Zm4.86,8.51h8.12c.41-2.18.61-3.38.61-3.6v-.3c0-.47-.13-.7-.39-.7h-7.07c-.39,0-.69.9-.88,2.7A16.55,16.55,0,0,0,194.07,22.63Z"/><path class="cls-1" d="M209.54,14.12h17.73c1.07,0,1.6.84,1.6,2.51v.1q0,1-2.21,12.61-1.33,3.21-6.35,3.21h-13.7v-.1a7,7,0,0,0,2-4.61q.84-4.26,1.94-11a3.62,3.62,0,0,0-1.05-2.51Zm4.09,14.12h7.84c.4,0,.77-1.33,1.1-4q.12-.33,1.05-5.91h-7.79c-.4,0-.69.9-.88,2.7C214.91,21,214.47,23.44,213.63,28.24Z"/><path class="cls-1" d="M232.07,14.12h14.81c1.06,0,1.6.84,1.6,2.51v.1q0,1-2.21,12.61-1.34,3.21-6.35,3.21h-7.24q-3.74,0-4.53-2.71l-.05-.7q2.21-13.07,2.43-14A1.66,1.66,0,0,1,232.07,14.12Zm1.16,14.12h7.85c.4,0,.77-1.33,1.1-4q.12-.33,1-5.91h-7.79c-.4,0-.7.9-.88,2.7C234.52,21,234.08,23.44,233.23,28.24Z"/><path class="cls-1" d="M254.79,14.12h10.77v.1q-1.74,3.91-5.3,3.91h-5.58c-.66,0-1,.43-1,1.3a2.83,2.83,0,0,0-.16,1c0,.6.27.9.83.9h4.47c2.43.32,3.65,1.35,3.65,3.11v.3q-.84,5.51-1.39,5.5-1.35,2.31-5.52,2.31h-6.35q-.57-.93-2-4s.06,0,.06-.1q4.08.11,6.35.1H256c.6,0,1-.47,1.1-1.4s.22-1.37.22-1.5a1.3,1.3,0,0,0-1-.4h-4.53c-2-.29-3.19-1.12-3.48-2.51-.07,0-.11-.16-.11-.5a23.58,23.58,0,0,1,1.05-5.3C250.19,15.06,252,14.12,254.79,14.12Z"/><path class="cls-2" d="M96.63,58c1.52-2.86,2.51-4.74,3.24-6.22s1.59-3.29,2.63-5.68,1.79-4.21,2.14-5.15l.49-1.35,10.3-.53,9.84-.54c-.1.22-.14.32-.24.53l-.62,1.37-.74,1.64c-.16.34-.31.69-.44,1-2.27,0-4.18,0-5.74.11l-3.48.15-2.85.18c-.56,1.26-.83,1.86-1.37,3,1.39,0,3,0,4.87-.09.66,0,2.42-.09,5.3-.22-.58,1.16-1.23,2.51-2,4.09-2,0-3.54,0-4.62,0-1.61,0-3.42,0-5.45.11-.57,1.25-.87,1.88-1.51,3.22h2c.59,0,1.82,0,3.67,0l3.6,0,2.69-.09c-.72,1.39-1.48,2.87-2.29,4.52-2.77,0-5.82-.07-9.19-.08H99.17Z"/><path class="cls-2" d="M116.78,58.07c2-1.54,4.41-3.33,7.24-5.41s5-3.73,6.63-5c-.34-1.12-.52-1.68-.89-2.81-.17-.51-.44-1.22-.79-2.15s-.52-1.35-.86-2.27c-.21-.58-.43-1.25-.68-2,1.55-.06,3.13-.12,4.76-.2,1.28-.06,2.67-.13,4.14-.22a28,28,0,0,0,.65,2.93,20.66,20.66,0,0,1,.56,2.66c.77-.71,1.78-1.61,3.06-2.72s2.42-2.18,3.46-3.21c1.27,0,2.65-.08,4.16-.14,1,0,2.36-.1,4.16-.2-1.33,1.18-3.29,2.85-5.84,4.89s-5,4-7.24,5.8c.71,2.72,1.68,6.25,3,10.39l-4.12-.1c-1.53,0-3,0-4.52,0a26.32,26.32,0,0,0-.52-3c-.26-1.2-.48-2.3-.64-3.29-.75.66-1.9,1.59-3.47,2.81s-3,2.34-4.22,3.39l-3.92-.08Z"/><path class="cls-2" d="M144.3,58.44c.83-1.47,1.25-2.21,2.09-3.73,1.54-3,2.32-4.47,3.89-7.61,1.05-2.22,1.58-3.35,2.64-5.66.27-.62.54-1.24.8-1.87.2-.47.52-1.24.95-2.33,1.58,0,2.85-.06,3.82-.1s2.22-.11,3.88-.22,3.07-.18,4.23-.22a15.82,15.82,0,0,1,3.59.17,4.64,4.64,0,0,1,1.84.82,3.31,3.31,0,0,1,1.05,1.4,3.86,3.86,0,0,1,.21,1.86,7.51,7.51,0,0,1-.57,2.17,11.89,11.89,0,0,1-3,4.18,13.16,13.16,0,0,1-4.64,2.77,16.34,16.34,0,0,1-5.31.88,14.15,14.15,0,0,1-2.22-.2c.12-.48.26-1.2.42-2.17s.25-1.7.29-2.18a8.38,8.38,0,0,0,1.63.12,5.73,5.73,0,0,0,3.14-.84,4.44,4.44,0,0,0,1.76-2,2.36,2.36,0,0,0,.22-1,.93.93,0,0,0-.35-.71,1.52,1.52,0,0,0-.83-.34,6.4,6.4,0,0,0-1.2,0c-.44,0-.91,0-1.4.07l-1.59.15c-1.05,2.13-2.18,4.48-3.37,7-2.18,4.56-3.43,7.06-3.82,7.9l-.87,1.88-3.58-.1Z"/><path class="cls-2" d="M168.05,58.94c1-1.68,2-3.31,2.78-4.8s1.75-3.29,2.77-5.39,2.06-4.37,3.08-6.74,1.75-4.24,2.26-5.59c1.56,0,2.83,0,3.8-.06s2.26-.09,3.73-.17,2.9-.15,4.27-.19c1.62,0,3,0,4.25.06a9.62,9.62,0,0,1,2.41.43,5,5,0,0,1,1.63.86,3.29,3.29,0,0,1,.87,1.19,3.42,3.42,0,0,1,.21,1.61,6.71,6.71,0,0,1-.49,2,11.91,11.91,0,0,1-1.25,2.3,11.69,11.69,0,0,1-1.85,2,11.28,11.28,0,0,1-2.42,1.63,23.86,23.86,0,0,1-3.52,1.37c0,.91,0,1.36,0,2.25,0,.63,0,1.26,0,1.89.09,2,.14,3,.3,4.81,0,.2,0,.58.08,1.13-2-.09-3.39-.14-4.1-.16l-4.4-.1c0-.51.11-1.46.27-2.95.08-.63.12-1.13.13-1.48.05-.78.11-1.89.17-3.35.09-1.95.14-2.95.21-4.94a10.33,10.33,0,0,0,1.93.16,8.88,8.88,0,0,0,2.68-.4,6,6,0,0,0,2.22-1.23,5,5,0,0,0,1.3-1.75A1.91,1.91,0,0,0,191.5,42a1.48,1.48,0,0,0-1-.84,9.6,9.6,0,0,0-2.78-.23l-1.39.06-1.69.08c-1.11,2.39-2.5,5.38-4.12,8.76s-3.15,6.56-4.46,9.27L172,59Z"/><path class="cls-2" d="M194.76,59.72c1.47-2.48,2.84-5,3.91-7s2.5-4.94,4.1-8.52,2.47-5.84,2.84-6.92c.2-.6.3-.9.48-1.49,2.9,0,6.38-.09,10.36-.15l9.65-.15c-.11.23-.16.35-.27.59s-.3.67-.71,1.59l-.91,2L223.64,41c-2.13-.13-4-.2-5.46-.21-1.65,0-2.78,0-3.37,0s-1.52,0-2.79.07c-.73,1.7-1.13,2.58-1.93,4.33,1.37.06,3,.1,4.76.13.64,0,2.37,0,5.11,0l-2.8,5.86c-1.9-.09-3.4-.14-4.46-.17-1.58,0-3.38,0-5.46,0-.88,1.81-1.33,2.7-2.18,4.38.83,0,1.24,0,2.05.05l3.68,0,3.51,0c.52,0,1.39,0,2.61,0C216,57.23,215,59,214.12,60.58c-2.59-.18-5.49-.36-8.87-.51-3.06-.12-4.69-.17-7.89-.28Z"/><path class="cls-2" d="M217.8,60.48c1-2.28,1.84-4.34,2.37-5.9A10.54,10.54,0,0,0,222.81,56a8.64,8.64,0,0,0,2.3.47,5.73,5.73,0,0,0,2.45-.36,2.62,2.62,0,0,0,1.71-2,1.93,1.93,0,0,0,0-.68,2.9,2.9,0,0,0-.28-.83c-.65-1.3-1-2-1.66-3.28-.4-.75-.67-1.29-.82-1.63a7.56,7.56,0,0,1-.56-1.9A5.54,5.54,0,0,1,226,44a8.34,8.34,0,0,1,.56-1.89,10.73,10.73,0,0,1,1.31-2.31,12.4,12.4,0,0,1,2-2.08,11.33,11.33,0,0,1,2.66-1.66,12.06,12.06,0,0,1,3.06-1,18.49,18.49,0,0,1,3-.29,23.82,23.82,0,0,1,6,.73c-.42.92-.79,1.77-1.12,2.54s-.85,2.13-1.56,4.08a8.68,8.68,0,0,0-2.36-1.09,8.49,8.49,0,0,0-2.07-.33,5.09,5.09,0,0,0-2.43.53,3,3,0,0,0-1.48,1.41,2.37,2.37,0,0,0-.2.78,2.32,2.32,0,0,0,.11.9,5.64,5.64,0,0,0,.47,1.14c.22.41.58,1,1.08,1.85l.7,1.17a9.18,9.18,0,0,1,.59,1.28,7.84,7.84,0,0,1,.43,1.47,6.11,6.11,0,0,1,.11,1.3,6,6,0,0,1-.18,1.18A7,7,0,0,1,236.2,55a11.15,11.15,0,0,1-2.31,3.16,12.07,12.07,0,0,1-3.29,2.3,12.59,12.59,0,0,1-3.49,1.08,15,15,0,0,1-3.33.13A30,30,0,0,1,217.8,60.48Z"/><path class="cls-2" d="M236,61.63a48.13,48.13,0,0,0,2.77-6.28,10.37,10.37,0,0,0,2.84,1.43,10.11,10.11,0,0,0,2.59.44,7.36,7.36,0,0,0,2.8-.43,2.8,2.8,0,0,0,1.64-1.43,2.2,2.2,0,0,0,.19-.62,2.07,2.07,0,0,0-.06-.68,3.11,3.11,0,0,0-.39-.84c-.83-1.3-1.23-2-2-3.29a18,18,0,0,1-.93-1.65,6.8,6.8,0,0,1-.6-1.94,5.65,5.65,0,0,1,.06-1.83,8.58,8.58,0,0,1,.64-2A11.61,11.61,0,0,1,247,40.12a14,14,0,0,1,2.19-2.23,13.32,13.32,0,0,1,2.9-1.81,13.08,13.08,0,0,1,3.23-1,17.48,17.48,0,0,1,3.11-.29,23.13,23.13,0,0,1,6.16.85c-.48,1-.87,1.89-1.19,2.71s-.86,2.23-1.47,4.22a11.14,11.14,0,0,0-2.66-1.1,9.54,9.54,0,0,0-2.25-.34,5.61,5.61,0,0,0-2.58.57,3.07,3.07,0,0,0-1.57,1.47,2.44,2.44,0,0,0-.21.8,2.55,2.55,0,0,0,.15.92,5.81,5.81,0,0,0,.57,1.15c.27.42.7,1,1.34,1.86l.91,1.15a14.36,14.36,0,0,1,.85,1.26,10.07,10.07,0,0,1,.71,1.44,5.7,5.7,0,0,1,.35,1.29,4.17,4.17,0,0,1,0,1.17,5.23,5.23,0,0,1-.35,1.26,9.23,9.23,0,0,1-2.29,3.25,13.59,13.59,0,0,1-3.8,2.49,17.12,17.12,0,0,1-4.27,1.31,21,21,0,0,1-4.06.29A29.62,29.62,0,0,1,236,61.63Z"/><path class="cls-1" d="M65.36,61.21c-.89,0-1.78,0-2.67,0l-24.81.49c-1.35,0-1.34,0-1.37-1.3A20.71,20.71,0,0,0,34,50.27a15,15,0,0,0-6.88-6.13,31,31,0,0,0-4-1.47,2.74,2.74,0,0,1-1.86-3.86,10.75,10.75,0,0,1,1.9-2.69c2.8-2.94,5.66-5.81,8.51-8.7a7.34,7.34,0,0,1,.6-.51l.29.12A5.3,5.3,0,0,1,32,28.74c-1.58,2-3.18,4-4.9,5.88a3.14,3.14,0,0,0-.7,3.49,3.07,3.07,0,0,0,2.89,2c1.89.16,3.78.21,5.67.3l10.63.56c.29,0,.59.07.89.12a1.8,1.8,0,0,1,1.58,1.29c.21.78-.22,1.26-.74,1.8-2.12,2.21-4.16,4.5-6.29,6.7a4.28,4.28,0,0,0-1.41,3.09,2.73,2.73,0,0,0,2.65,3c2.87.21,5.76.31,8.64.26,2,0,4.06-.45,6.1-.59a4.07,4.07,0,0,1,2,.48c1.9,1,3.75,2,5.61,3.06a5.78,5.78,0,0,1,.84.73Z"/><path d="M84.07,48.33a12.06,12.06,0,0,1,2.54,3.14,8.65,8.65,0,0,1,.49,1c.16.4,2.35.31,7.15.75.11,0-6.69.69-6.67.8a10.31,10.31,0,0,1,.25,2.32,9.77,9.77,0,0,1-.42,2.92c0,.1,20-.38,19.92-.28s-20.17,1-20.25,1.14a8,8,0,0,1-3.48,3.65l.07.22c92.87-6.09,172.71,3.95,172.72,4-.35.63-67.65-7.26-174.5-2.43-1.86.06-3.71.54-5.55.49-4.39-.11-7.88-2-9.77-6.06a9.5,9.5,0,0,1,.71-9.94,7.72,7.72,0,0,1,3.59-2.78,5.16,5.16,0,0,0,.49-.21s.08-.08.19-.21c-.39-.67-.8-1.38-1.25-2.18a8.64,8.64,0,0,0,.88-.2c.66-.27,1,0,1.2.63.45,1.31.47,1.29,1.8,1a12.7,12.7,0,0,1,5.1,0,15.32,15.32,0,0,0,2.94.34c1.16.33,15.72.33,17.76.81S83.69,47.67,84.07,48.33Zm-6.78,1c-1.9.06-1.9.06-1.49,1.92,0,.09,0,.17,0,.26.07.74.41,1,1.21,1.09a3.51,3.51,0,0,1,2.88,5.1c-.78,1.5-3.24,2.25-5,1.54a3.18,3.18,0,0,1-1.3-5.16c.49-.56.6-1,.14-1.54a5.46,5.46,0,0,1-.38-.72c-.81-1.54-1.09-1.58-2.34-.29a3.94,3.94,0,0,0-.45.56A6.59,6.59,0,0,0,70,58.57c1.25,3.25,4.26,4.79,8.06,4.24a6.59,6.59,0,0,0,5.86-7.09C83.57,51.52,81.19,49.25,77.29,49.36Z"/><path d="M26,46.16c.6.05,1.29.14,2,.15a1.64,1.64,0,0,0,.88-.26.71.71,0,0,1,1.18.42,2.41,2.41,0,0,0,.57,1A15.81,15.81,0,0,1,35.06,54a8.43,8.43,0,0,1-3.79,10.27c-4.3,2.57-8.73,3-13.09.17-6-3.85-5.62-13,.57-16.52A14.57,14.57,0,0,1,26,46.16Zm3,4.44c-.18.54-.3,1-.47,1.44A4.14,4.14,0,0,0,28.42,55c.75,2.35-.2,3.87-2.51,4.19-1.41.19-3,.39-3.91-1.11-1.35-2.17-1-4.9,2.31-5.32a7,7,0,0,0,.8-.08c.22,0,.52-.15.59-.31.37-.93.68-1.89,1.06-3a28.26,28.26,0,0,0-3.46,0,6.14,6.14,0,0,0-5.48,5,7,7,0,0,0,2.78,7.2c1.7,1.22,6.17,1.56,8.82-.33s3.78-5,2.46-8A4.88,4.88,0,0,0,29.05,50.6Z"/><path class="cls-1" d="M73,28.88c4.08.37,8.15.72,12.21,1.15a1.61,1.61,0,0,1,1.18.85,1.52,1.52,0,0,1-.78,1.22c-7.84,3.51-15.59,7.21-23.12,11.36a3.13,3.13,0,0,1-1.12.15c0-.5-.15-1.2.11-1.49,1.34-1.46,2.78-2.82,4.21-4.2a3.26,3.26,0,0,1,.8-.37,27.22,27.22,0,0,0,3.86-2,4,4,0,0,0,1.44-4.28c0-.24-.11-.47-.16-.71C71.38,29.28,71.78,28.8,73,28.88Z"/><path class="cls-1" d="M29.94,37.6c1.18-.63,2.33-1.31,3.54-1.89,4.56-2.19,9.31-3.25,14.33-2.05a42.68,42.68,0,0,1,5.08,1.81c.21.08.5.56.43.68-.92,1.64-1.89,3.25-3,5.08-.19-.31-.27-.47-.37-.61a4.4,4.4,0,0,0-3.68-1.91c-4.87-.19-9.72-.43-14.58-.65L30,37.94Z"/><path d="M43.52,12.35a6.93,6.93,0,0,1,6.31,4.91,1.09,1.09,0,0,1-.29.85c-1.65,1.61-3.32,3.21-5,4.76-.26.24-.77.22-1.17.32A6.62,6.62,0,0,1,43.27,22c.07-.74.21-1.47.3-2.21s-.26-.9-.9-.89c-.9,0-1.8,0-2.7,0-1.47,0-2.08-.78-1.77-2.2A5.74,5.74,0,0,1,43.52,12.35Z"/><path class="cls-1" d="M74.36,53.15c-4.24.17-9.19.13-13.42.34a1.22,1.22,0,0,1-.54,0c-.53-.22-1.31-.37-1.49-.77A2.06,2.06,0,0,1,59.22,51c1.83-2.38,3.77-4.67,5.66-7,.41-.51.66-.44,1,.11,1,1.59,2,3.14,3,4.72.8,1.27.8,1.27,2.58,1.09,3,0,4,.46,4.7-.4a5.57,5.57,0,0,0,.55-1.33c.46-1.49.9-3,1.34-4.49a3.31,3.31,0,0,1,2-2.27Q90.66,36.73,101.29,32c.29-.13.59-.22,1-.38,0,.44.09.76.09,1.07,0,1.75.09-1.51.08.23,0,.7,82.9.79,79,1.49-1.13.06-61.1.68-77,1.1-1.37,0-1.05,5-1.73,5.07-2.78.14-5.54.73-8.3,1.13-4.26.61-8.51,1.24-12.77,1.82a1.28,1.28,0,0,0-1.25,1c-.67,2.37-1.33,4.74-2.08,7.09C77.45,53.63,74.91,53.13,74.36,53.15Z"/><path d="M62.24,54.63l1.07,1.79-.13.18a58,58,0,0,1-6.37-5.07c-.85-1.05-1-1.26-2.16-2.72-1.54-2-2.73-4.19-2.6-6.84a6.06,6.06,0,0,1,1.74-4,22.42,22.42,0,0,0,2.91-3.75c1.21-2,.58-3.53-1.57-4.5a16.6,16.6,0,0,0-13.49,0l-7.77,3.15a1.8,1.8,0,0,1-1,.15l5.33-4.25q5.54-4.41,11.07-8.82a6.37,6.37,0,0,1,6.57-.27l5.61,3.55.38.24.81.51,4.62,2.92c.48.31.95.64,1.41,1,2,1.49,2.36,3.61.73,5.45a34,34,0,0,1-4,3.47c-1.7,1.38-3.43,2.73-5.16,4.07A3.35,3.35,0,0,0,59,43.16a13.55,13.55,0,0,0,1.21,7.73C60.51,51.48,62.24,54.63,62.24,54.63Z"/></svg>